<svg width="32" height="31" viewBox="0 0 32 31" fill="none" xmlns="http://www.w3.org/2000/svg">
<path fill-rule="evenodd" clip-rule="evenodd" d="M18.6879 27.1492C21.5083 27.0508 24.0654 25.9867 25.5366 24.6938C26.3723 23.9595 27.0368 23.1622 27.4483 22.425C28.538 20.4726 28.4639 20.1576 26.132 20.1164C28.3644 19.5323 29.5604 18.3608 30.3072 16.6088C31.0266 14.9212 31.431 13.0382 31.2933 11.8879C31.1661 10.8264 29.7999 11.5779 29.2257 11.8158C31.0371 10.7224 31.2194 8.87764 31.0371 7.04016C30.7102 3.74456 28.8939 0 24.903 0C22.3477 7.4262e-07 20.3527 1.7732 19.7012 3.66957C18.7122 6.54813 19.638 8.34373 20.3037 9.63482C20.3643 9.75247 20.4233 9.86686 20.478 9.97657C20.1397 9.51256 19.8836 9.12484 19.6791 8.8152C19.1728 8.04859 18.9826 7.76055 18.6426 7.97809C17.72 8.56845 17.0816 12.5526 17.467 14.8331C16.9547 13.3586 16.6891 12.649 16.1721 13.0413C15.6533 13.4349 14.7332 14.9281 14.4753 17.3036C14.2844 15.8052 14.2084 15.587 13.7288 15.9733C13.083 16.4934 11.8691 18.023 11.2175 19.7741C11.2254 19.7113 11.2331 19.6505 11.2405 19.5913C11.3419 18.7838 11.4054 18.2786 11.5798 17.3632C9.9043 18.8301 9.11912 19.938 8.16151 22.3762C8.20188 21.2121 8.53833 19.476 9.23141 18.4061C8.16151 18.8166 6.96376 20.1287 6.72825 22.0801C6.44108 21.3002 6.45966 20.8072 6.48709 20.0795C6.48896 20.0298 6.49088 19.979 6.49274 19.9269C5.96788 20.7747 5.97401 22.3928 6.20953 23.9135C5.87854 22.6311 5.1335 21.7908 4.37986 21.5956C4.91793 22.1508 5.34677 23.1572 5.51831 24.2436C5.38108 23.992 4.63022 23.4317 4.12886 23.4317C4.49441 23.6665 5.00853 24.2727 5.24077 24.9084C4.90183 24.6171 4.57687 24.4219 4.12886 24.4219C4.53342 24.6187 4.90527 25.0561 5.07423 25.4862C5.10268 25.5586 5.18056 25.6022 5.25564 25.5817C16.6701 22.4765 24.5236 15.9245 25.234 3.62552C26.4289 22.0758 5.92685 26.3382 4.13067 26.7117C4.09667 26.7187 4.06938 26.7244 4.04906 26.7288C3.87559 26.7677 3.68403 26.8107 3.47587 26.8654C2.71387 27.0658 2.04712 27.14 1.50686 27.2C0.463716 27.316 -0.107873 27.3796 0.0169437 28.1984C0.102967 28.7628 0.540373 28.9488 1.16207 28.8983C1.53251 28.8682 2.01789 28.7132 2.67245 28.5042C3.2965 28.3049 4.07438 28.0565 5.05319 27.8203C5.4667 27.7206 5.76741 27.6533 6.2384 28.0101C7.08036 28.6479 7.61833 29.4158 8.07409 30.2257C8.03636 29.7373 7.99874 29.467 7.83569 29.0057C8.57924 30.0546 9.01285 30.5082 9.82699 30.9899C9.46571 30.4614 9.30398 30.1577 9.04519 29.6121C9.94969 30.3589 10.8682 30.7621 12.1303 30.7621C10.8612 30.2853 10.153 29.4299 9.65871 28.7848C13.0327 31.1201 19.4889 30.532 22.3297 27.474C20.9562 27.4019 19.7427 27.3204 18.6879 27.1492Z" fill="#152646"/>
</svg>
